<svg xmlns="http://www.w3.org/2000/svg" viewBox="0 0 1440 320"><path fill="#0099ff" fill-opacity="1" d="M0,192L8.3,197.3C16.6,203,33,213,50,224C66.2,235,83,245,99,261.3C115.9,277,132,299,149,288C165.5,277,182,235,199,224C215.2,213,232,235,248,213.3C264.8,192,281,128,298,122.7C314.5,117,331,171,348,181.3C364.1,192,381,160,397,144C413.8,128,430,128,447,117.3C463.4,107,480,85,497,69.3C513.1,53,530,43,546,69.3C562.8,96,579,160,596,170.7C612.4,181,629,139,646,133.3C662.1,128,679,160,695,186.7C711.7,213,728,235,745,245.3C761.4,256,778,256,794,229.3C811,203,828,149,844,112C860.7,75,877,53,894,90.7C910.3,128,927,224,943,218.7C960,213,977,107,993,101.3C1009.7,96,1026,192,1043,218.7C1059.3,245,1076,203,1092,165.3C1109,128,1126,96,1142,101.3C1158.6,107,1175,149,1192,176C1208.3,203,1225,213,1241,202.7C1257.9,192,1274,160,1291,133.3C1307.6,107,1324,85,1341,69.3C1357.2,53,1374,43,1390,53.3C1406.9,64,1423,96,1432,112L1440,128L1440,320L1431.7,320C1423.4,320,1407,320,1390,320C1373.8,320,1357,320,1341,320C1324.1,320,1308,320,1291,320C1274.5,320,1258,320,1241,320C1224.8,320,1208,320,1192,320C1175.2,320,1159,320,1142,320C1125.5,320,1109,320,1092,320C1075.9,320,1059,320,1043,320C1026.2,320,1010,320,993,320C976.6,320,960,320,943,320C926.9,320,910,320,894,320C877.2,320,861,320,844,320C827.6,320,811,320,794,320C777.9,320,761,320,745,320C728.3,320,712,320,695,320C678.6,320,662,320,646,320C629,320,612,320,596,320C579.3,320,563,320,546,320C529.7,320,513,320,497,320C480,320,463,320,447,320C430.3,320,414,320,397,320C380.7,320,364,320,348,320C331,320,314,320,298,320C281.4,320,265,320,248,320C231.7,320,215,320,199,320C182.1,320,166,320,149,320C132.4,320,116,320,99,320C82.8,320,66,320,50,320C33.1,320,17,320,8,320L0,320Z"></path></svg>